<svg xmlns="http://www.w3.org/2000/svg" width="81.339" height="81.339" viewBox="0 0 81.339 81.339">
  <g id="menu" transform="translate(-484.5 -829.5)">
    <g id="グループ_2308" data-name="グループ 2308" transform="translate(469.398 -28)">
      <ellipse id="楕円形_18" data-name="楕円形 18" cx="39.169" cy="39.169" rx="39.169" ry="39.169" transform="translate(16.602 859)" fill="#333" stroke="#fff" stroke-miterlimit="10" stroke-width="3"/>
    </g>
    <g id="menu-2" data-name="menu" transform="translate(504.398 843.34)">
      <path id="パス_1" data-name="パス 1" d="M496.487,175.069h-39.98a.95.95,0,0,0-.947.947v52.107a.95.95,0,0,0,.947.946h39.98a.949.949,0,0,0,.948-.946V176.016A.949.949,0,0,0,496.487,175.069Zm-2.368,50.685H458.877V178.384h35.242Z" transform="translate(-455.56 -175.069)" fill="#fff"/>
      <path id="パス_2" data-name="パス 2" d="M474.578,191.987a12.3,12.3,0,1,0,12.3,12.3A12.3,12.3,0,0,0,474.578,191.987Zm.134,10.488a1.276,1.276,0,0,1-.339.917l-.905,1.091a2.456,2.456,0,0,0-.7,1.717v5.432a.669.669,0,0,1-.67.67h-.631a.67.67,0,0,1-.671-.67V206.2a2.46,2.46,0,0,0-.694-1.717l-.906-1.091a1.279,1.279,0,0,1-.338-.917v-4.89a.705.705,0,0,1,1.408-.063c0,.019,0,3.749,0,3.749a.417.417,0,0,0,.409.375.411.411,0,0,0,.411-.406l0-3.655a.7.7,0,0,1,.586-.7.589.589,0,0,1,.107-.009h.005a.614.614,0,0,1,.108.009.705.705,0,0,1,.586.7l0,3.655a.41.41,0,0,0,.41.406.417.417,0,0,0,.41-.375s0-3.729,0-3.749a.706.706,0,0,1,1.409.063Zm5.576,9.382a.43.43,0,0,1-.429.424h-1.139a.425.425,0,0,1-.423-.424l0-4.425a3.016,3.016,0,0,1-1.932-2.673c0-2.392,1.972-7.184,1.972-7.184h0a1.006,1.006,0,0,1,1.963.309Z" transform="translate(-453.64 -170.238)" fill="#fff"/>
      <g id="グループ_1" data-name="グループ 1" transform="translate(7.39 9.09)">
        <path id="パス_3" data-name="パス 3" d="M474.245,185.008l2.25,4H478.1v-6.861H476.5v4l-2.25-4h-1.607v6.861h1.607Z" transform="translate(-458.073 -182.137)" fill="#fff"/>
        <path id="パス_4" data-name="パス 4" d="M462.8,185.268l1.18,3.752h1.542l1.18-3.752v3.752h1.489v-6.877h-1.995l-1.445,4.6-1.445-4.6h-1.995v6.877H462.8Z" transform="translate(-461.308 -182.139)" fill="#fff"/>
        <path id="パス_5" data-name="パス 5" d="M472.542,187.679h-3.107v-1.525h2.376v-1.313h-2.376v-1.358h3.039v-1.34H467.89v6.876h4.651Z" transform="translate(-459.429 -182.139)" fill="#fff"/>
        <path id="パス_6" data-name="パス 6" d="M480.862,189.024a2.76,2.76,0,0,1-2.752-2.823V182.14H479.9v3.929c0,.762.341,1.183.959,1.183s1-.442,1-1.183V182.14h1.743V186.2A2.754,2.754,0,0,1,480.862,189.024Z" transform="translate(-456.511 -182.14)" fill="#fff"/>
      </g>
    </g>
  </g>
</svg>
